<?xml version="1.0" standalone="no"?>
<!DOCTYPE svg PUBLIC "-//W3C//DTD SVG 1.1//EN" "http://www.w3.org/Graphics/SVG/1.1/DTD/svg11.dtd">
<svg width="100%" height="100%" viewBox="0 0 128 128" version="1.1" xmlns="http://www.w3.org/2000/svg" xmlns:xlink="http://www.w3.org/1999/xlink" xml:space="preserve" style="fill-rule:evenodd;clip-rule:evenodd;stroke-linejoin:round;stroke-miterlimit:1.41421;">
    <g transform="matrix(0.128,0,0,0.128,0,0)">
        <path d="M933,908C927,911 922,914 914,914C910,914 904,913 899,909C895,904 893,898 894,893C894,889 894,886 895,883C900,871 907,852 913,832C920,813 924,793 924,782C924,780 924,778 923,777C921,776 920,776 916,775C911,774 902,773 894,773C881,773 867,775 853,776C836,778 823,779 814,781L813,781L812,781C812,781 811,781 808,781C804,781 799,780 794,777C789,773 787,766 787,761C787,751 792,745 800,739C811,732 821,725 834,720L834,719L845,715L846,715L865,709L865,710C884,706 903,705 921,705C944,705 964,708 978,712C982,714 987,717 991,721L992,722L992,723C996,730 998,737 1000,748L1000,754C998,793 981,863 933,908ZM681,714C672,721 660,721 650,717C607,681 601,666 577,632C535,677 499,700 457,714C431,721 402,725 368,725C261,725 178,659 178,529C178,425 233,355 314,321C356,301 407,292 457,286C491,281 524,279 552,277L552,260C552,228 555,193 537,167C522,144 493,133 467,133L457,133C413,138 374,163 362,211C360,222 354,233 341,235L218,220C208,218 195,211 199,193C226,55 345,6 457,0L484,0C546,0 626,17 677,63C738,120 732,197 732,281L732,480C732,539 755,566 780,597C787,609 789,622 778,630C753,652 707,692 681,714ZM552,406L552,379C520,379 487,381 457,387C404,402 362,436 362,507C362,562 392,599 440,599C447,599 453,597 457,597C487,590 512,571 529,539C555,495 552,456 552,406ZM482,897C586,895 698,870 806,826L816,821L823,819C829,816 834,814 840,812C844,809 849,808 855,808C870,808 885,820 885,838C885,847 880,856 871,862C859,872 845,882 831,889L831,890C726,956 592,996 474,998C469,998 466,998 462,998C275,998 137,897 9,787C4,781 0,774 0,766C0,760 2,753 6,749C10,745 17,742 23,742C28,742 33,744 37,747C172,821 306,897 470,897C474,897 478,897 482,897" style="fill:rgb(223,217,185);fill-rule:nonzero;"/>
    </g>
</svg>
