<?xml version="1.0" standalone="no"?>
<!DOCTYPE svg PUBLIC "-//W3C//DTD SVG 1.1//EN" "http://www.w3.org/Graphics/SVG/1.1/DTD/svg11.dtd">
<svg width="100%" height="100%" viewBox="0 0 128 128" version="1.1" xmlns="http://www.w3.org/2000/svg" xmlns:xlink="http://www.w3.org/1999/xlink" xml:space="preserve" style="fill-rule:evenodd;clip-rule:evenodd;stroke-linejoin:round;stroke-miterlimit:1.41421;">
    <g transform="matrix(0.128,0,0,0.128,1,0)">
        <path d="M513,740C537,763 537,800 513,824L382,955C354,984 315,1000 274,1000C233,1000 195,984 166,955L59,848C0,788 0,691 59,631L343,348C403,288 500,288 560,348L606,394L522,478L476,432C462,418 441,418 427,432L143,715C130,729 130,751 143,764L250,871C263,884 285,884 298,871L429,740C453,716 490,716 513,740ZM912,151L806,44C777,15 738,0 698,0C657,0 618,15 589,44L448,186C425,209 425,246 448,270C471,293 509,293 532,270L673,128C686,115 709,115 722,128L828,235C842,248 842,270 828,284L545,567C531,581 509,581 496,567L448,519L447,519L363,603L364,603L412,651C442,681 481,696 520,696C560,696 599,681 629,651L913,368C972,308 972,211 912,151Z" style="fill:rgb(223,217,185);fill-rule:nonzero;"/>
    </g>
</svg>
