<?xml version="1.0" standalone="no"?>
<!DOCTYPE svg PUBLIC "-//W3C//DTD SVG 1.1//EN" "http://www.w3.org/Graphics/SVG/1.1/DTD/svg11.dtd">
<svg width="100%" height="100%" viewBox="0 0 128 128" version="1.1" xmlns="http://www.w3.org/2000/svg" xmlns:xlink="http://www.w3.org/1999/xlink" xml:space="preserve" style="fill-rule:evenodd;clip-rule:evenodd;stroke-linejoin:round;stroke-miterlimit:1.41421;">
    <g transform="matrix(0.128,0,0,0.128,1,0)">
        <path d="M38,184C38,103 103,38 184,38C205,38 225,42 243,50C256,42 269,35 283,28C254,10 220,0 184,0C82,0 0,82 0,184C0,228 15,268 41,300C46,286 52,272 58,258C45,236 38,211 38,184ZM798,0C762,0 728,10 700,28C713,35 727,42 740,50C758,42 777,38 798,38C879,38 944,103 944,184C944,211 937,236 924,258C930,272 936,286 941,300C967,268 983,228 983,184C983,82 900,0 798,0ZM181,980L214,1000L283,884C271,879 260,872 249,866L181,980ZM688,889L754,1000L787,980L723,872C712,878 700,884 688,889ZM491,19C249,19 53,215 53,456C53,698 249,894 491,894C733,894 929,698 929,456C929,215 733,19 491,19ZM571,640L472,461L472,132L510,132L510,451L604,621L571,640Z" style="fill:rgb(66,66,66);fill-rule:nonzero;"/>
    </g>
</svg>
