<?xml version="1.0" standalone="no"?>
<!DOCTYPE svg PUBLIC "-//W3C//DTD SVG 1.1//EN" "http://www.w3.org/Graphics/SVG/1.1/DTD/svg11.dtd">
<svg width="100%" height="100%" viewBox="0 0 50 50" version="1.1" xmlns="http://www.w3.org/2000/svg" xmlns:xlink="http://www.w3.org/1999/xlink" xml:space="preserve" style="fill-rule:evenodd;clip-rule:evenodd;stroke-linejoin:round;stroke-miterlimit:1.41421;">
    <g id="g3371" transform="matrix(0.783652,0,0,0.802334,-0.133282,0.19342)">
        <g id="rect3167" transform="matrix(0.670575,0.741842,-0.741842,0.670575,0,0)">
            <path d="M9.983,-0.171C9.983,-0.955 9.347,-1.592 8.565,-1.592L2.872,-1.592C2.09,-1.592 1.454,-0.955 1.454,-0.171C1.454,0.614 2.09,1.251 2.872,1.251L8.565,1.251C9.347,1.251 9.983,0.614 9.983,-0.171Z" style="fill:rgb(223,217,185);stroke-width:1.25px;stroke:rgb(223,217,185);"/>
        </g>
        <g id="rect3167-8" transform="matrix(-0.670575,0.741842,0.741842,0.670575,0,0)">
            <path d="M-32.977,47.183C-32.977,46.399 -33.612,45.762 -34.394,45.762L-40.087,45.762C-40.87,45.762 -41.505,46.399 -41.505,47.183C-41.505,47.968 -40.87,48.605 -40.087,48.605L-34.394,48.605C-33.612,48.605 -32.977,47.968 -32.977,47.183Z" style="fill:rgb(223,217,185);stroke-width:1.25px;stroke:rgb(223,217,185);"/>
        </g>
        <g id="body" transform="matrix(1,0,0,0.62687,0.161266,22.3478)">
            <g transform="matrix(1.27608,0,0,1.92894,0.00881229,-33.1854)">
                <path d="M46.62,22.537C46.62,20.881 45.276,19.537 43.62,19.537L6.52,19.537C4.864,19.537 3.52,20.881 3.52,22.537L3.52,45.05C3.52,46.706 4.864,48.05 6.52,48.05L43.62,48.05C45.276,48.05 46.62,46.706 46.62,45.05L46.62,22.537ZM25.394,22.537C31.931,22.537 37.238,27.531 37.238,33.682C37.238,39.832 31.931,44.826 25.394,44.826C18.857,44.826 13.55,39.832 13.55,33.682C13.55,27.531 18.857,22.537 25.394,22.537Z" style="fill:rgb(223,217,185);stroke-width:1.24px;stroke-linecap:round;stroke:rgb(223,217,185);"/>
            </g>
            <g id="path3779-7-0" transform="matrix(1.56958,0,0,2.42917,-2.58202,-68.4936)">
                <path d="M22.209,35.75C19.364,35.75 16.978,37.58 16.365,40.034L19.232,40.034C19.757,38.988 20.895,38.264 22.209,38.264C24.025,38.264 25.491,39.611 25.491,41.281C25.491,42.95 24.025,44.298 22.209,44.298C20.895,44.298 19.757,43.573 19.232,42.548L16.365,42.548C16.978,44.981 19.364,46.812 22.209,46.812C25.535,46.812 28.227,44.338 28.227,41.281C28.227,38.224 25.535,35.75 22.209,35.75Z" style="fill:rgb(223,217,185);fill-rule:nonzero;stroke-width:0.82px;stroke:rgb(223,217,185);"/>
            </g>
        </g>
        <g id="head" transform="matrix(1.27608,0,0,1.17844,0.170078,0.0172896)">
            <path d="M46.494,6.804C46.494,5.148 45.15,3.804 43.494,3.804L6.393,3.804C4.737,3.804 3.393,5.148 3.393,6.804L3.393,15.108C3.393,16.764 4.737,18.108 6.393,18.108L43.494,18.108C45.15,18.108 46.494,16.764 46.494,15.108L46.494,6.804ZM14.281,10.632C14.281,12.049 13.198,13.214 11.882,13.214C10.566,13.214 9.484,12.049 9.484,10.632C9.484,9.216 10.566,8.05 11.882,8.05C13.198,8.05 14.281,9.216 14.281,10.632ZM41.281,10.632C41.281,12.049 40.198,13.214 38.882,13.214C37.566,13.214 36.484,12.049 36.484,10.632C36.484,9.216 37.566,8.05 38.882,8.05C40.198,8.05 41.281,9.216 41.281,10.632Z" style="fill:rgb(223,217,185);stroke-width:1px;stroke-linecap:round;stroke:rgb(223,217,185);"/>
        </g>
    </g>
</svg>
