<?xml version="1.0" encoding="iso-8859-1"?>
<!DOCTYPE svg PUBLIC "-//W3C//DTD SVG 1.1 Basic//EN" "http://www.w3.org/Graphics/SVG/1.1/DTD/svg11-basic.dtd">
<svg version="1.1" baseProfile="basic"
   xmlns="http://www.w3.org/2000/svg" xmlns:xlink="http://www.w3.org/1999/xlink" x="0px" y="0px" width="128px" height="128px"
   viewBox="0 0 128 128" xml:space="preserve">
   <path transform="matrix(0.128,0,0,0.128,12,0)" style="fill:#DFD9B9" d="M 811 334 z M 811 334 C 811 383 808 427 797 465 C 797 465 786 497 786 497 C 754 570 685 616 541 630 C 566 647 591 680 591 739 C 591 739 591 893 591 893 C 591 893 594 931 629 944 C 629 944 649 958 627 966 C 627 966 531 974 531 895 C 531 895 531 777 531 777 C 531 777 535 734 512 716 C 512 716 512 907 512 907 C 512 907 513 953 537 970 C 537 970 553 1000 518 991 C 518 991 451 982 448 904 C 448 904 446 709 446 709 C 446 709 430 709 430 709 C 430 709 429 904 429 904 C 426 982 360 991 360 991 C 324 1000 341 970 341 970 C 364 953 366 907 366 907 C 366 907 366 715 366 715 C 343 731 347 777 347 777 C 347 777 347 895 347 895 C 347 974 250 966 250 966 C 228 958 248 944 248 944 C 283 931 286 893 286 893 C 286 893 286 785 286 785 C 136 818 105 715 105 715 C 82 653 47 637 47 637 C 0 604 51 605 51 605 C 104 609 131 659 131 659 C 182 745 264 715 290 703 C 298 665 317 643 337 630 C 202 616 125 570 87 497 C 87 497 73 465 73 465 C 59 427 54 383 54 334 C 54 268 77 215 115 174 C 109 158 89 97 122 15 C 122 15 173 0 286 77 C 335 64 386 57 436 57 C 482 57 529 63 572 73 C 683 0 731 15 731 15 C 759 84 749 138 741 162 C 784 206 811 262 811 334 z M 671 329 C 671 329 671 329 671 329 C 619 283 533 308 435 308 C 337 308 250 284 200 330 C 169 359 150 392 150 428 C 150 580 278 604 435 604 C 592 604 720 599 720 428 C 720 392 702 358 671 329 z M 599 523 C 566 523 540 484 540 437 C 540 390 566 352 599 352 C 631 353 657 390 657 437 C 657 484 631 523 599 523 z M 281 523 C 249 523 222 484 222 437 C 222 390 249 352 281 352 C 314 353 341 390 341 437 C 341 484 314 523 281 523"/>
</svg>