<?xml version="1.0" encoding="iso-8859-1"?>
<!DOCTYPE svg PUBLIC "-//W3C//DTD SVG 1.1 Basic//EN" "http://www.w3.org/Graphics/SVG/1.1/DTD/svg11-basic.dtd">
<svg version="1.1" baseProfile="basic"
   xmlns="http://www.w3.org/2000/svg" xmlns:xlink="http://www.w3.org/1999/xlink" x="0px" y="0px" width="128px" height="128px"
   viewBox="0 0 128 128" xml:space="preserve">
   <path transform="matrix(0.128,0,0,0.128,0,0)" style="fill:#DFD9B9" d="M 500 0 C 224 0 0 224 0 500 C 0 775 224 1000 500 1000 C 775 1000 1000 775 1000 500 C 1000 224 775 0 500 0 z M 559 278 C 608 272 655 258 697 237 C 667 166 624 101 572 45 C 594 49 616 54 638 61 C 676 109 708 162 733 218 C 761 202 787 182 810 161 C 820 170 829 179 838 189 C 811 214 780 237 748 256 C 769 314 783 376 788 440 L 748 440 C 743 382 731 327 712 274 C 665 297 613 312 559 318 L 559 278 z M 189 161 C 214 184 242 205 272 222 C 298 162 331 108 371 58 C 392 52 413 47 435 44 C 382 101 338 167 308 240 C 349 259 393 272 440 278 L 440 318 C 388 312 339 298 293 277 C 275 329 263 383 258 440 L 218 440 C 223 377 237 316 257 259 C 222 240 190 216 160 189 C 169 179 179 170 189 161 z M 440 721 C 393 727 349 740 308 759 C 338 832 382 898 435 955 C 413 952 392 947 371 941 C 331 891 298 837 272 777 C 242 794 214 815 189 838 C 179 829 169 820 160 810 C 190 783 222 759 257 740 C 237 683 223 622 218 559 L 258 559 C 263 616 275 670 293 722 C 339 701 388 687 440 681 L 440 721 z M 810 838 C 787 817 761 797 733 781 C 708 837 676 890 638 938 C 616 945 594 950 572 954 C 624 898 667 833 697 762 C 655 741 608 727 559 721 L 559 681 C 613 687 665 702 712 725 C 731 672 743 617 748 559 L 788 559 C 783 623 769 685 748 743 C 781 762 811 785 838 810 C 830 820 820 829 810 838 z M 519 519 L 519 959 C 513 959 506 960 499 960 C 493 960 486 959 480 959 L 480 519 L 40 519 C 40 513 39 506 39 500 C 39 493 40 486 40 480 L 480 480 L 480 40 C 486 40 493 39 500 39 C 506 39 513 40 519 40 L 519 480 L 959 480 C 959 486 960 493 960 500 C 960 506 959 513 959 519 L 519 519 z"/>
</svg>