<?xml version="1.0" standalone="no"?>
<!DOCTYPE svg PUBLIC "-//W3C//DTD SVG 1.1//EN" "http://www.w3.org/Graphics/SVG/1.1/DTD/svg11.dtd">
<svg width="100%" height="100%" viewBox="0 0 50 50" version="1.1" xmlns="http://www.w3.org/2000/svg" xmlns:xlink="http://www.w3.org/1999/xlink" xml:space="preserve" style="fill-rule:evenodd;clip-rule:evenodd;stroke-linejoin:round;stroke-miterlimit:1.41421;">
    <g id="path10138" transform="matrix(0.742246,0,0,0.691568,-133.839,-3909.35)">
        <path d="M182.844,5653.14C181.364,5653.59 180.5,5655.16 180.5,5657.36L180.5,5720.59C180.5,5722.77 181.336,5724.25 182.797,5724.72L215.422,5688.91L182.844,5653.14ZM188.516,5654.88L217.438,5686.7L227.094,5676.11L188.516,5654.88ZM229.86,5677.61L219.5,5688.95L229.907,5700.34L244.063,5692.56C246.692,5691.09 247.719,5690.4 247.719,5689C247.719,5687.6 246.692,5686.91 244.063,5685.44L229.86,5677.61ZM217.485,5691.2L188.422,5723.08L227.188,5701.84L217.485,5691.2Z" style="fill:rgb(223,217,185);fill-rule:nonzero;"/>
    </g>
</svg>
