<?xml version="1.0" encoding="iso-8859-1"?>
<!DOCTYPE svg PUBLIC "-//W3C//DTD SVG 1.1 Basic//EN" "http://www.w3.org/Graphics/SVG/1.1/DTD/svg11-basic.dtd">
<svg version="1.1" baseProfile="basic"
   xmlns="http://www.w3.org/2000/svg" xmlns:xlink="http://www.w3.org/1999/xlink" x="0px" y="0px" width="128px" height="128px"
   viewBox="0 0 128 128" xml:space="preserve">
   <path transform="matrix(0.128,0,0,0.128,0,15)" style="fill:#DFD9B9" d="M 472 253 C 174 52 155 91 155 91 C 131 143 222 209 222 209 L 196 210 C 196 210 158 209 166 236 C 175 271 220 307 220 307 C 242 318 270 308 270 308 C 270 308 241 323 222 335 C 191 355 213 372 217 376 C 257 418 320 416 320 416 C 320 416 290 451 290 464 C 290 486 310 499 311 501 C 329 513 354 514 354 514 C 194 684 0 513 0 512 C 21 637 205 758 528 711 C 791 669 874 382 874 382 C 874 382 983 388 995 324 C 961 330 912 320 912 320 C 912 320 996 284 1000 241 C 951 278 878 268 876 268 C 820 71 683 71 683 71 C 683 71 741 38 739 18 C 722 5 686 31 683 31 C 692 24 687 6 675 0 C 658 1 643 33 643 33 C 643 33 634 17 627 17 C 536 42 471 253 472 253 z"/>
</svg>