<svg viewBox="0 0 128 128" xmlns="http://www.w3.org/2000/svg" fill-rule="evenodd" clip-rule="evenodd" stroke-linejoin="round" stroke-miterlimit="1.414"><path d="M74.736 9.984C83.184 0 93.04.384 93.04.384s2.816 10.624-5.632 19.968c-8.448 9.472-18.304 8.96-18.304 8.96s-2.816-9.344 5.632-19.328zm36.736 102.144c-8.064 10.24-8.448 12.672-19.2 15.616-7.936.128-8.32-5.632-20.736-5.76-8.96-.64-13.056 6.016-21.12 5.504-2.176-.128-9.344.512-20.352-15.616C6 75.52 19.824 51.072 22.128 46.848c2.432-4.224 10.88-16.256 26.368-15.616 15.36.64 13.184 6.016 21.376 6.016 7.68.256 9.728-7.424 23.68-6.4 11.904-.64 24.32 12.416 24.32 12.416s-14.208 5.632-14.464 25.088c-.128 19.456 17.024 25.856 17.024 25.856s-.768 4.224-8.96 17.92z" fill="#dfd9b9" fill-rule="nonzero"/></svg>