<svg viewBox="0 0 128 128" xmlns="http://www.w3.org/2000/svg" fill-rule="evenodd" clip-rule="evenodd" stroke-linejoin="round" stroke-miterlimit="1.414"><path d="M66.664 94.72c3.072 2.944 3.072 7.68 0 10.752L49.896 122.24c-3.584 3.712-8.576 5.76-13.824 5.76-5.248 0-10.112-2.048-13.824-5.76L8.552 108.544C1 100.864 1 88.448 8.552 80.768l36.352-36.224c7.68-7.68 20.096-7.68 27.776 0l5.888 5.888-10.752 10.752-5.888-5.888c-1.792-1.792-4.48-1.792-6.272 0L19.304 91.52c-1.664 1.792-1.664 4.608 0 6.272L33 111.488c1.664 1.664 4.48 1.664 6.144 0L55.912 94.72c3.072-3.072 7.808-3.072 10.752 0zm51.072-75.392L104.168 5.632C100.456 1.92 95.464 0 90.344 0c-5.248 0-10.24 1.92-13.952 5.632L58.344 23.808c-2.944 2.944-2.944 7.68 0 10.752 2.944 2.944 7.808 2.944 10.752 0l18.048-18.176c1.664-1.664 4.608-1.664 6.272 0l13.568 13.696c1.792 1.664 1.792 4.48 0 6.272L70.76 72.576c-1.792 1.792-4.608 1.792-6.272 0l-6.144-6.144h-.128L47.464 77.184h.128l6.144 6.144c3.84 3.84 8.832 5.76 13.824 5.76 5.12 0 10.112-1.92 13.952-5.76l36.352-36.224c7.552-7.68 7.552-20.096-.128-27.776z" fill="#424242" fill-rule="nonzero"/></svg>