<svg viewBox="0 0 128 128" xmlns="http://www.w3.org/2000/svg" fill-rule="evenodd" clip-rule="evenodd" stroke-linejoin="round" stroke-miterlimit="1.414"><path d="M115.84 94.976H12.032C5.376 94.976 0 100.48 0 107.136v7.168a12.018 12.018 0 0 0 12.032 12.032H115.84c6.528 0 12.16-5.376 12.16-12.032v-7.168c0-6.656-5.632-12.16-12.16-12.16zM71.808 110.72h-55.68v-7.808h55.68v7.808zm15.872 0h-7.936v-7.808h7.936v7.808zM111.488 0H16.256C11.904 0 8.32 3.456 8.32 7.808v71.296c0 4.352 3.584 7.936 7.936 7.936h95.232c4.352 0 7.936-3.584 7.936-7.936V7.808c0-4.352-3.584-7.808-7.936-7.808zm-7.936 71.296h-79.36v-55.68h79.36v55.68z" fill="#424242" fill-rule="nonzero"/></svg>