<svg viewBox="0 0 50 50" xmlns="http://www.w3.org/2000/svg" fill-rule="evenodd" clip-rule="evenodd" stroke-linejoin="round" stroke-miterlimit="1.414"><path d="M9.983-.17a1.42 1.42 0 0 0-1.418-1.422H2.872a1.42 1.42 0 0 0 0 2.843h5.693A1.42 1.42 0 0 0 9.983-.17z" fill="#dfd9b9" stroke-width="1.25" stroke="#dfd9b9" transform="matrix(.5255 .5952 -.58135 .53803 -.133 .193)"/><path d="M-32.977 47.183a1.42 1.42 0 0 0-1.417-1.42h-5.693a1.42 1.42 0 0 0-1.418 1.42 1.42 1.42 0 0 0 1.418 1.422h5.693a1.42 1.42 0 0 0 1.417-1.422z" fill="#dfd9b9" stroke-width="1.25" stroke="#dfd9b9" transform="matrix(-.5255 .5952 .58135 .53803 -.133 .193)"/><path d="M46.62 22.537a3 3 0 0 0-3-3H6.52a3 3 0 0 0-3 3V45.05a3 3 0 0 0 3 3h37.1a3 3 0 0 0 3-3V22.537zm-21.226 0c6.537 0 11.844 4.994 11.844 11.145 0 6.15-5.307 11.144-11.844 11.144-6.537 0-11.844-4.994-11.844-11.144s5.307-11.145 11.844-11.145z" fill="#dfd9b9" stroke-width="1.24" stroke-linecap="round" stroke="#dfd9b9" transform="matrix(1 0 0 .97018 0 1.433)"/><path d="M22.21 35.75c-2.846 0-5.232 1.83-5.845 4.284h2.867c.525-1.046 1.663-1.77 2.977-1.77 1.815 0 3.28 1.347 3.28 3.017S24.026 44.3 22.21 44.3c-1.315 0-2.453-.725-2.978-1.75h-2.867c.613 2.433 3 4.264 5.844 4.264 3.325 0 6.017-2.474 6.017-5.53 0-3.058-2.692-5.532-6.018-5.532z" fill="#dfd9b9" fill-rule="nonzero" stroke-width=".82" stroke="#dfd9b9" transform="matrix(1.23 0 0 1.22177 -2.03 -16.326)"/><g><path d="M46.494 6.804a3 3 0 0 0-3-3h-37.1a3 3 0 0 0-3 3v8.304a3 3 0 0 0 3 3h37.1a3 3 0 0 0 3-3V6.804zM14.28 10.632c0 1.417-1.082 2.582-2.398 2.582s-2.398-1.165-2.398-2.582c0-1.416 1.082-2.582 2.398-2.582s2.4 1.166 2.4 2.582zm27 0c0 1.417-1.082 2.582-2.398 2.582s-2.398-1.165-2.398-2.582c0-1.416 1.082-2.582 2.398-2.582s2.4 1.166 2.4 2.582z" fill="#dfd9b9" stroke-linecap="round" stroke="#dfd9b9" transform="matrix(1 0 0 .9455 0 .207)"/></g></svg>