<svg baseProfile="basic" xmlns="http://www.w3.org/2000/svg" width="128" height="128" viewBox="0 0 128 128"><path d="M115.808 42.752zm0 0c0 6.272-.384 11.904-1.792 16.768l-1.408 4.096c-4.096 9.344-12.928 15.232-31.36 17.024 3.2 2.176 6.4 6.4 6.4 13.952v19.712s.384 4.864 4.864 6.528c0 0 2.56 1.792-.256 2.816 0 0-12.288 1.024-12.288-9.088V99.456s.512-5.504-2.432-7.808v24.448s.128 5.888 3.2 8.064c0 0 2.048 3.84-2.432 2.688 0 0-8.576-1.152-8.96-11.136l-.256-24.96H67.04l-.128 24.96c-.384 9.984-8.832 11.136-8.832 11.136-4.608 1.152-2.432-2.688-2.432-2.688 2.944-2.176 3.2-8.064 3.2-8.064V91.52c-2.944 2.048-2.432 7.936-2.432 7.936v15.104c0 10.112-12.416 9.088-12.416 9.088-2.816-1.024-.256-2.816-.256-2.816 4.48-1.664 4.864-6.528 4.864-6.528V100.48c-19.2 4.224-23.168-8.96-23.168-8.96-2.944-7.936-7.424-9.984-7.424-9.984-6.016-4.224.512-4.096.512-4.096 6.784.512 10.24 6.912 10.24 6.912 6.528 11.008 17.024 7.168 20.352 5.632 1.024-4.864 3.456-7.68 6.016-9.344-17.28-1.792-27.136-7.68-32-17.024l-1.792-4.096c-1.792-4.864-2.432-10.496-2.432-16.768 0-8.448 2.944-15.232 7.808-20.48-.768-2.048-3.328-9.856.896-20.352 0 0 6.528-1.92 20.992 7.936 6.272-1.664 12.8-2.56 19.2-2.56 5.888 0 11.904.768 17.408 2.048C99.424 0 105.568 1.92 105.568 1.92c3.584 8.832 2.304 15.744 1.28 18.816 5.504 5.632 8.96 12.8 8.96 22.016zm-17.92-.64c-6.656-5.888-17.664-2.688-30.208-2.688-12.544 0-23.68-3.072-30.08 2.816-3.968 3.712-6.4 7.936-6.4 12.544 0 19.456 16.384 22.528 36.48 22.528 20.096 0 36.48-.64 36.48-22.528 0-4.608-2.304-8.96-6.272-12.672zm-9.216 24.832c-4.224 0-7.552-4.992-7.552-11.008 0-6.016 3.328-10.88 7.552-10.88 4.096.128 7.424 4.864 7.424 10.88 0 6.016-3.328 11.008-7.424 11.008zm-40.704 0c-4.096 0-7.552-4.992-7.552-11.008 0-6.016 3.456-10.88 7.552-10.88 4.224.128 7.68 4.864 7.68 10.88 0 6.016-3.456 11.008-7.68 11.008" fill="#dfd9b9"/></svg>