<svg baseProfile="basic" xmlns="http://www.w3.org/2000/svg" width="128" height="128" viewBox="0 0 128 128"><path d="M60.416 47.384C22.272 21.656 19.84 26.648 19.84 26.648c-3.072 6.656 8.576 15.104 8.576 15.104l-3.328.128s-4.864-.128-3.84 3.328c1.152 4.48 6.912 9.088 6.912 9.088 2.816 1.408 6.4.128 6.4.128s-3.712 1.92-6.144 3.456c-3.968 2.56-1.152 4.736-.64 5.248 5.12 5.376 13.184 5.12 13.184 5.12s-3.84 4.48-3.84 6.144c0 2.816 2.56 4.48 2.688 4.736 2.304 1.536 5.504 1.664 5.504 1.664C24.832 102.552 0 80.664 0 80.536c2.688 16 26.24 31.488 67.584 25.472 33.664-5.376 44.288-42.112 44.288-42.112s13.952.768 15.488-7.424c-4.352.768-10.624-.512-10.624-.512S127.488 51.352 128 45.848c-6.272 4.736-15.616 3.456-15.872 3.456-7.168-25.216-24.704-25.216-24.704-25.216s7.424-4.224 7.168-6.784c-2.176-1.664-6.784 1.664-7.168 1.664 1.152-.896.512-3.2-1.024-3.968-2.176.128-4.096 4.224-4.096 4.224s-1.152-2.048-2.048-2.048c-11.648 3.2-19.968 30.208-19.84 30.208z" fill="#dfd9b9"/></svg>