<?xml version="1.0" encoding="iso-8859-1"?>
<!DOCTYPE svg PUBLIC "-//W3C//DTD SVG 1.1 Basic//EN" "http://www.w3.org/Graphics/SVG/1.1/DTD/svg11-basic.dtd">
<svg version="1.1" baseProfile="basic"
   xmlns="http://www.w3.org/2000/svg" xmlns:xlink="http://www.w3.org/1999/xlink" x="0px" y="0px" width="128px" height="128px"
   viewBox="0 0 128 128" xml:space="preserve">
   <path transform="matrix(0.128,0,0,0.128,1,0)" style="fill:#000000" d="M 513 740 C 537 763 537 800 513 824 L 382 955 C 354 984 315 1000 274 1000 C 233 1000 195 984 166 955 L 59 848 C 0 788 0 691 59 631 L 343 348 C 403 288 500 288 560 348 L 606 394 L 522 478 L 476 432 C 462 418 441 418 427 432 L 143 715 C 130 729 130 751 143 764 L 250 871 C 263 884 285 884 298 871 L 429 740 C 453 716 490 716 513 740 z M 912 151 L 806 44 C 777 15 738 0 698 0 C 657 0 618 15 589 44 L 448 186 C 425 209 425 246 448 270 C 471 293 509 293 532 270 L 673 128 C 686 115 709 115 722 128 L 828 235 C 842 248 842 270 828 284 L 545 567 C 531 581 509 581 496 567 L 448 519 C 447 519 447 519 447 519 L 363 603 C 363 603 363 603 364 603 L 412 651 C 442 681 481 696 520 696 C 560 696 599 681 629 651 L 913 368 C 972 308 972 211 912 151 z"/>
</svg>